<?xml version="1.0" standalone="no"?>
<!DOCTYPE svg PUBLIC "-//W3C//DTD SVG 20010904//EN"
 "http://www.w3.org/TR/2001/REC-SVG-20010904/DTD/svg10.dtd">
<svg version="1.0" xmlns="http://www.w3.org/2000/svg"
 width="550.000000pt" height="330.000000pt" viewBox="0 0 800.000000 330.000000"
 preserveAspectRatio="xMidYMid meet">

<g transform="translate(0.000000,330.000000) scale(0.100000,-0.100000)"
fill="#6b8fc9" stroke="none">
<path d="M3928 3099 c-72 -26 -124 -77 -143 -143 -8 -27 -15 -56 -15 -63 0
-10 -28 -13 -125 -13 -113 0 -125 -2 -135 -19 -15 -30 -12 -272 4 -293 12 -17
47 -18 486 -18 439 0 474 1 486 18 16 21 19 263 4 293 -10 17 -22 19 -134 19
l-123 0 -12 54 c-20 89 -65 135 -170 171 -53 18 -52 18 -123 -6z m141 -135
c31 -26 48 -76 37 -112 -4 -11 -18 -32 -31 -46 -20 -21 -33 -26 -75 -26 -42 0
-55 4 -76 27 -46 49 -44 105 6 154 38 39 95 40 139 3z"/>
<path d="M3070 2807 c-48 -15 -113 -83 -128 -133 -16 -55 -18 -2219 -1 -2277
15 -57 71 -113 135 -137 54 -20 73 -20 924 -20 851 0 870 0 924 20 64 24 120
80 135 137 17 58 15 2222 -1 2277 -16 53 -81 118 -134 134 -24 7 -98 12 -173
12 l-131 0 0 -59 0 -59 141 -4 c140 -3 141 -3 165 -31 l24 -28 0 -1105 0
-1106 -29 -29 -29 -29 -892 0 -892 0 -29 29 -29 29 0 1107 0 1107 29 29 29 29
136 0 136 0 0 60 0 60 -137 -1 c-76 -1 -154 -6 -173 -12z"/>
<path d="M2640 2741 c-71 -18 -120 -69 -135 -138 l-7 -33 -88 0 c-63 0 -91 -4
-99 -14 -8 -9 -11 -50 -9 -117 l3 -104 268 -3 269 -2 -4 147 c-3 134 -5 152
-26 185 -37 60 -112 95 -172 79z m96 -118 c16 -21 18 -67 4 -92 -16 -31 -65
-46 -100 -31 -45 19 -63 66 -44 115 17 44 109 49 140 8z"/>
<path d="M5275 2737 c-48 -19 -85 -48 -101 -78 -10 -21 -14 -67 -14 -179 l0
-150 263 2 262 3 3 95 c4 146 9 140 -102 140 l-94 0 -11 45 c-13 53 -68 110
-120 125 -43 12 -48 12 -86 -3z m105 -107 c20 -20 26 -63 14 -95 -10 -25 -62
-47 -95 -40 -36 8 -59 40 -59 82 0 46 30 73 80 73 27 0 47 -7 60 -20z"/>
<path d="M1975 2511 c-48 -22 -69 -44 -90 -94 -13 -32 -15 -140 -15 -849 0
-770 1 -815 19 -854 22 -48 60 -80 111 -94 24 -6 190 -9 436 -8 l399 3 3 48 3
48 -413 -1 c-227 -1 -421 2 -431 6 -10 4 -23 18 -28 31 -5 14 -9 363 -9 834
l0 810 25 24 c22 23 31 25 125 25 l100 0 0 45 0 45 -97 0 c-74 0 -108 -5 -138
-19z"/>
<path d="M5788 2524 c-5 -4 -8 -25 -8 -46 l0 -38 100 0 c94 0 103 -2 126 -25
l24 -24 -2 -825 c-3 -745 -5 -827 -19 -841 -15 -15 -62 -16 -433 -15 l-417 1
3 -48 3 -48 416 0 415 0 42 27 c82 55 77 -10 80 916 2 791 2 825 -17 866 -10
24 -36 56 -56 72 -36 27 -45 29 -144 32 -58 2 -109 0 -113 -4z"/>
<path d="M3952 2068 c-17 -17 -15 -55 4 -62 28 -11 724 -7 745 4 24 13 25 39
2 56 -25 18 -733 20 -751 2z"/>
<path d="M2634 1965 c-15 -38 1 -45 106 -45 l101 0 -3 28 -3 27 -98 3 c-80 2
-98 0 -103 -13z"/>
<path d="M5286 1965 c-8 -9 -13 -22 -10 -30 5 -13 49 -15 284 -15 177 0 281 4
285 10 3 6 3 19 0 30 -6 19 -16 20 -275 20 -228 0 -271 -2 -284 -15z"/>
<path d="M4120 1766 c-6 -8 -10 -25 -8 -38 l3 -23 294 0 c265 0 295 2 304 17
9 13 7 22 -7 37 -18 20 -29 21 -296 21 -230 0 -280 -2 -290 -14z"/>
<path d="M2757 1743 c-13 -12 -7 -41 9 -47 9 -3 29 -6 45 -6 26 0 29 4 29 30
0 28 -2 30 -38 30 -21 0 -42 -3 -45 -7z"/>
<path d="M5407 1744 c-15 -15 -6 -44 16 -49 12 -3 112 -4 222 -3 l200 3 0 25
0 25 -216 3 c-118 1 -218 -1 -222 -4z"/>
<path d="M2632 1503 c-19 -37 -5 -43 104 -43 l105 0 -3 28 -3 27 -97 3 c-85 2
-98 0 -106 -15z"/>
<path d="M5281 1506 c-6 -7 -9 -21 -5 -30 5 -14 37 -16 284 -16 177 0 281 4
285 10 3 6 3 19 0 30 -6 19 -16 20 -279 20 -220 0 -276 -3 -285 -14z"/>
<path d="M3947 1453 c-13 -13 -7 -61 9 -67 9 -3 177 -6 373 -6 340 0 359 1
375 19 14 15 15 24 6 40 -11 21 -16 21 -384 21 -205 0 -376 -3 -379 -7z"/>
<path d="M2753 1264 c-8 -23 13 -39 52 -39 32 -1 35 2 35 27 0 26 -3 28 -40
28 -28 0 -43 -5 -47 -16z"/>
<path d="M5404 1265 c-4 -8 0 -22 7 -31 11 -14 41 -15 215 -12 207 3 234 8
221 42 -9 24 -435 24 -443 1z"/>
<path d="M4122 1141 c-8 -5 -12 -21 -10 -37 l3 -29 283 -3 c282 -2 322 2 322
32 0 7 -8 20 -18 29 -16 15 -52 17 -293 17 -151 0 -280 -4 -287 -9z"/>
<path d="M2144 1035 c-4 -8 -4 -22 0 -30 5 -13 53 -15 351 -15 l345 0 0 30 0
30 -345 0 c-298 0 -346 -2 -351 -15z"/>
<path d="M5160 1020 l0 -30 343 2 342 3 0 25 0 25 -342 3 -343 2 0 -30z"/>
<path d="M3292 818 c-17 -17 -15 -32 6 -51 17 -16 80 -17 704 -17 679 0 685 0
704 21 14 15 16 24 7 37 -9 16 -65 17 -710 20 -535 2 -702 -1 -711 -10z"/>
</g>
</svg>
