<?xml version="1.0" standalone="no"?>
<!DOCTYPE svg PUBLIC "-//W3C//DTD SVG 20010904//EN"
 "http://www.w3.org/TR/2001/REC-SVG-20010904/DTD/svg10.dtd">
<svg version="1.0" xmlns="http://www.w3.org/2000/svg"
 width="250" height="106" viewBox="0 0 700.000000 246.000000"
 preserveAspectRatio="xMidYMid meet">

<g transform="translate(0.000000,246.000000) scale(0.100000,-0.100000)"
fill="#6b8fc9" stroke="none">
<path d="M633 1374 c-9 -4 -13 -38 -13 -120 l0 -114 28 -5 c82 -17 107 -29
152 -74 61 -61 78 -119 56 -195 -25 -85 -99 -147 -194 -162 l-43 -7 3 -116 3
-116 34 -3 c38 -4 82 12 106 37 8 10 20 46 26 79 21 117 95 194 202 212 68 11
100 31 121 75 22 45 20 76 -7 116 -27 41 -54 55 -128 69 -41 8 -68 21 -99 47
-46 40 -90 121 -90 166 0 33 -24 79 -51 95 -22 14 -89 24 -106 16z"/>
<path d="M417 1035 c-21 -7 -40 -15 -41 -17 -23 -31 -36 -56 -36 -73 0 -66
-53 -160 -113 -200 -28 -20 -110 -45 -143 -45 -2 0 -4 -52 -4 -115 l0 -115 27
-5 c77 -16 108 -29 144 -62 48 -43 74 -91 84 -153 11 -66 32 -100 73 -117 127
-53 234 91 146 196 -18 22 -39 33 -82 42 -111 22 -177 76 -201 162 -11 37 -11
56 -1 94 22 91 79 141 188 166 106 25 149 89 117 174 -14 36 -26 49 -59 64
-49 22 -50 22 -99 4z"/>
<path d="M1765 657 c-64 -22 -97 -42 -141 -89 -54 -57 -69 -80 -149 -228 -86
-160 -107 -187 -169 -216 -67 -31 -135 -31 -202 0 -188 87 -175 350 21 432 23
9 72 14 153 14 131 0 146 6 140 57 l-3 28 -155 0 c-149 0 -157 -1 -205 -27
-147 -78 -214 -248 -160 -408 26 -77 118 -170 195 -195 119 -40 245 -15 335
66 39 37 66 77 122 186 40 77 86 158 103 181 113 157 323 154 417 -5 23 -40
28 -59 28 -118 0 -59 -5 -78 -28 -118 -71 -121 -223 -158 -339 -82 -40 27 -82
77 -93 113 -3 12 -10 22 -15 22 -12 0 -50 -73 -50 -95 0 -28 98 -122 153 -146
72 -33 201 -34 269 -2 63 29 134 97 166 158 37 72 42 188 12 267 -28 75 -96
150 -167 183 -67 32 -177 42 -238 22z"/>
<path d="M2465 651 c-88 -24 -147 -72 -181 -146 -22 -45 -24 -64 -24 -197 0
-86 -5 -157 -11 -171 -11 -24 -47 -47 -73 -47 -13 0 -96 -72 -96 -83 0 -15
117 -6 155 12 93 43 115 96 115 276 0 154 12 194 72 237 47 33 139 33 187 -1
61 -44 71 -83 71 -283 l0 -178 28 -29 c15 -16 36 -32 47 -35 20 -6 20 -2 17
222 -3 202 -6 232 -24 274 -45 105 -181 176 -283 149z"/>
<path d="M2960 645 c-124 -56 -160 -205 -72 -299 47 -50 96 -66 205 -66 115 0
150 -13 166 -63 13 -40 4 -72 -29 -102 -20 -18 -40 -20 -214 -25 l-191 -5 2
-30 c1 -16 10 -36 20 -42 22 -17 335 -18 384 -2 45 15 106 74 120 117 27 80
-11 173 -88 218 -39 24 -58 27 -161 32 -103 4 -118 7 -139 28 -48 48 -36 115
27 146 29 15 64 18 214 18 l179 0 -19 21 c-46 51 -90 63 -234 66 -106 3 -143
0 -170 -12z"/>
<path d="M3402 621 c18 -22 75 -111 126 -200 l92 -160 0 -118 c0 -128 5 -143
50 -143 45 0 50 15 50 144 l0 119 96 166 c52 91 110 181 127 199 l31 32 -60 0
c-75 0 -80 -5 -163 -162 -34 -65 -67 -120 -72 -124 -17 -10 -33 13 -95 131
-77 149 -83 155 -157 155 l-59 0 34 -39z"/>
<path d="M4044 641 c-65 -30 -98 -81 -102 -160 -3 -59 0 -71 26 -112 44 -68
83 -83 224 -87 117 -4 118 -4 143 -34 39 -47 31 -112 -18 -140 -14 -8 -80 -15
-187 -18 l-165 -5 -3 -34 c-2 -20 2 -37 10 -42 7 -5 84 -9 171 -9 172 0 208 8
260 58 38 37 61 119 48 169 -17 60 -47 100 -93 125 -36 18 -63 23 -160 26
-116 4 -118 4 -143 34 -14 16 -25 41 -25 54 0 33 25 79 47 90 10 5 97 11 193
14 l175 5 3 28 c6 54 -4 57 -192 57 -145 0 -177 -3 -212 -19z"/>
</g>
</svg>
